<?xml version="1.0" standalone="no"?>
<!DOCTYPE svg PUBLIC "-//W3C//DTD SVG 20010904//EN"
 "http://www.w3.org/TR/2001/REC-SVG-20010904/DTD/svg10.dtd">
<svg version="1.0" xmlns="http://www.w3.org/2000/svg"
 width="500.000000pt" height="500.000000pt" viewBox="0 0 500.000000 500.000000"
 preserveAspectRatio="xMidYMid meet">

<g transform="translate(0.000000,500.000000) scale(0.100000,-0.100000)"
fill="#000000" stroke="none">
<path d="M2614 3225 c-34 -7 -76 -21 -93 -30 -113 -58 -191 -200 -176 -321 8
-63 57 -150 103 -181 18 -12 58 -27 89 -33 96 -20 169 23 204 122 11 33 11 42
-4 73 -19 40 -22 85 -6 85 22 0 49 -22 65 -52 30 -57 6 -165 -50 -226 -65 -73
-204 -90 -308 -39 -105 51 -148 130 -156 285 l-5 102 -41 0 c-58 0 -149 -25
-194 -54 -94 -59 -143 -156 -150 -296 l-5 -97 -71 1 c-92 1 -143 -27 -223
-126 -33 -40 -75 -80 -98 -92 -54 -28 -159 -27 -235 3 -30 11 -56 21 -56 21
-10 0 24 -112 50 -165 80 -168 218 -291 348 -310 55 -8 128 2 132 18 2 7 9 45
15 85 25 162 113 242 252 229 120 -11 197 -68 214 -159 l7 -38 -36 0 c-31 0
-36 3 -36 24 0 61 -107 124 -191 113 -88 -12 -130 -74 -137 -202 -7 -129 37
-207 151 -267 34 -18 58 -23 128 -23 78 0 91 3 160 37 42 21 96 56 122 79 l47
41 50 -45 c83 -75 128 -92 245 -92 91 0 106 3 165 31 105 49 175 124 194 206
6 24 2 30 -33 47 -46 24 -95 71 -118 115 -21 38 -23 164 -4 219 38 110 190
186 261 129 36 -29 18 -48 -43 -44 -42 3 -59 -1 -87 -20 -79 -53 -108 -180
-61 -264 78 -139 333 -145 464 -10 164 169 172 522 17 700 -66 75 -201 136
-300 136 l-49 0 -32 67 c-62 124 -163 202 -290 223 -81 13 -119 12 -195 -5z"/>
</g>
</svg>
